<?xml version="1.0" encoding="UTF-8"?>
<svg xmlns="http://www.w3.org/2000/svg" xmlns:xlink="http://www.w3.org/1999/xlink" width="200px" height="200px" viewBox="0 0 200 200" version="1.1">
<g id="surface1">
<path style=" stroke:none;fill-rule:nonzero;fill:rgb(100%,38.82353%,3.529412%);fill-opacity:1;" d="M 41.128906 100.015625 C 41.128906 110.683594 31.921875 119.332031 20.566406 119.332031 C 9.207031 119.332031 0 110.683594 0 100.015625 C 0 89.347656 9.207031 80.699219 20.566406 80.699219 C 31.921875 80.699219 41.128906 89.347656 41.128906 100.015625 Z M 41.128906 100.015625 "/>
<path style=" stroke:none;fill-rule:nonzero;fill:rgb(100%,70.980394%,8.235294%);fill-opacity:1;" d="M 185 180.664062 C 185 191.332031 175.792969 199.980469 164.4375 199.980469 C 153.078125 199.980469 143.871094 191.332031 143.871094 180.664062 C 143.871094 169.996094 153.078125 161.347656 164.4375 161.347656 C 175.792969 161.347656 185 169.996094 185 180.664062 Z M 185 180.664062 "/>
<path style=" stroke:none;fill-rule:nonzero;fill:rgb(100%,38.82353%,3.529412%);fill-opacity:1;" d="M 116.476562 51.800781 C 141.460938 51.800781 162.191406 69.816406 165.625 93.171875 L 200 93.171875 C 198.4375 74.820312 190.601562 57.714844 177.503906 44.222656 C 169.113281 48.371094 158.796875 48.449219 150.035156 43.539062 C 141.265625 38.621094 136.175781 29.898438 135.6875 20.757812 C 129.382812 19.332031 122.941406 18.613281 116.476562 18.617188 C 103.933594 18.617188 91.8125 21.277344 80.789062 26.320312 L 98 55.269531 C 103.890625 52.96875 110.15625 51.792969 116.476562 51.800781 Z M 116.476562 51.800781 "/>
<path style=" stroke:none;fill-rule:nonzero;fill:rgb(78.823531%,0%,8.627451%);fill-opacity:1;" d="M 165.625 106.835938 C 162.203125 130.203125 141.46875 148.230469 116.476562 148.230469 C 109.945312 148.230469 103.707031 146.996094 97.992188 144.757812 L 80.78125 173.710938 C 91.800781 178.753906 103.929688 181.414062 116.476562 181.414062 C 123.03125 181.414062 129.472656 180.679688 135.699219 179.269531 C 136.179688 170.121094 141.269531 161.382812 150.046875 156.460938 C 158.8125 151.546875 169.132812 151.625 177.523438 155.78125 C 190.613281 142.289062 198.441406 125.183594 199.996094 106.835938 Z M 165.625 106.835938 "/>
<path style=" stroke:none;fill-rule:nonzero;fill:rgb(100%,70.980394%,8.235294%);fill-opacity:1;" d="M 66.832031 100.015625 C 66.832031 84.65625 74.265625 70.949219 85.824219 62.113281 L 68.617188 33.167969 C 64.550781 35.925781 60.734375 39.035156 57.207031 42.457031 C 47.25 52.128906 40.109375 63.804688 36.179688 76.546875 C 44.097656 81.527344 49.339844 90.171875 49.339844 100.015625 C 49.339844 109.855469 44.097656 118.503906 36.179688 123.484375 C 40.109375 136.226562 47.25 147.902344 57.207031 157.574219 C 60.730469 160.996094 64.546875 164.101562 68.605469 166.859375 L 85.816406 137.910156 C 74.261719 129.078125 66.832031 115.371094 66.832031 100.015625 Z M 66.832031 100.015625 "/>
<path style=" stroke:none;fill-rule:nonzero;fill:rgb(78.823531%,0%,8.627451%);fill-opacity:1;" d="M 184.984375 19.335938 C 184.984375 30.003906 175.777344 38.652344 164.421875 38.652344 C 153.0625 38.652344 143.855469 30.003906 143.855469 19.335938 C 143.855469 8.667969 153.0625 0.015625 164.421875 0.015625 C 175.777344 0.015625 184.984375 8.667969 184.984375 19.335938 Z M 184.984375 19.335938 "/>
</g>
</svg>
